<svg xmlns="http://www.w3.org/2000/svg" xmlns:xlink="http://www.w3.org/1999/xlink" version="1.1" x="0px" y="0px" viewBox="0 0 24 24" enable-background="new 0 0 24 24" xml:space="preserve"><g><circle cx="5.831" cy="16.172" r="0.573"></circle><circle cx="2.125" cy="20.572" r="0.573"></circle><path d="M23.664,7.774L17.11,1.67c-0.168-0.156-0.417-0.251-0.655-0.238c-0.239,0.012-0.468,0.122-0.629,0.305   c-1.904,2.181-3.403,3.952-4.88,5.697c-1.422,1.683-2.825,3.34-4.556,5.32c-0.005,0.006-0.007,0.014-0.012,0.02   c-2.634,2.794-5.347,5.86-5.358,5.873c-1.347,1.348-1.086,2.601-0.454,3.265c0.39,0.41,0.975,0.657,1.618,0.657   c0.633,0,1.321-0.238,1.936-0.794c0.129-0.117,0.168-0.304,0.096-0.462C3.997,20.832,4.113,20.35,4.25,20.03   c0.295-0.691,0.968-1.323,1.676-1.572c1.491-0.525,2.134-1.726,2.354-2.657c0.138,0.136,0.283,0.279,0.419,0.412l0.092,0.091   c1.11,1.09,1.987,1.951,2.938,2.966c0.163,0.176,0.387,0.276,0.641,0.284h0.013c0.236,0,0.459-0.091,0.621-0.252   c1.774-1.711,3.229-3.101,4.635-4.444l0.694-0.663c1.638-1.563,3.272-3.125,5.344-5.121c0.176-0.17,0.274-0.407,0.273-0.65   C23.948,8.177,23.844,7.941,23.664,7.774z M5.66,17.704c-0.921,0.323-1.763,1.113-2.146,2.013   c-0.239,0.561-0.284,1.119-0.136,1.633c-0.829,0.611-1.762,0.507-2.232,0.012c-0.513-0.54-0.344-1.362,0.458-2.166   c0.026-0.029,2.36-2.666,4.795-5.273c0.014,0.016,0.02,0.036,0.035,0.051c0.406,0.407,0.78,0.778,1.14,1.133   C7.563,15.394,7.427,17.082,5.66,17.704z M17.78,13.616l-0.693,0.663c-1.407,1.344-2.863,2.734-4.642,4.45   c-0.016,0.016-0.038,0.023-0.063,0.023l-0.068-0.029c-0.964-1.027-1.846-1.894-2.963-2.991L9.206,15.59   c-0.646-0.633-1.363-1.338-2.208-2.183c-0.033-0.033-0.03-0.083-0.004-0.12c0.035-0.037,0.07-0.074,0.104-0.111   c0.018-0.019,0.026-0.042,0.039-0.063c1.664-1.907,3.035-3.527,4.42-5.163c1.473-1.742,2.97-3.51,4.872-5.688l0.136-0.006   l6.554,6.104c0,0,0.001,0.138,0.002,0.138C21.051,10.493,19.418,12.054,17.78,13.616z"></path><path d="M16.607,3.888c-0.785,0-1.425,0.64-1.425,1.425s0.64,1.425,1.425,1.425c0.785,0,1.425-0.64,1.425-1.425   S17.393,3.888,16.607,3.888z M16.607,5.937c-0.345,0-0.624-0.279-0.624-0.624s0.279-0.624,0.624-0.624s0.624,0.279,0.624,0.624   S16.952,5.937,16.607,5.937z"></path></g></svg>