<svg fill="#313638" xmlns="http://www.w3.org/2000/svg" xmlns:xlink="http://www.w3.org/1999/xlink" version="1.1" x="0px" y="0px" viewBox="0 0 60 60" style="enable-background:new 0 0 60 60;" xml:space="preserve"><g><g><path d="M50,26h-2V16c0-1.7-1.3-3-3-3h-5c0-2.2-1.8-4-4-4h-1V7c0-3.9-3.1-7-7-7s-7,3.1-7,7v2h-1c-2.2,0-4,1.8-4,4h-5    c-1.7,0-3,1.3-3,3v41c0,1.7,1.3,3,3,3h34c1.7,0,3-1.3,3-3v-9h2c1.7,0,3-1.3,3-3V29C53,27.3,51.7,26,50,26z M45,15c0.6,0,1,0.4,1,1    v10h-2v-8c0-0.6-0.4-1-1-1h-3v-2H45z M18,13c0-1.1,0.9-2,2-2h2c0.6,0,1-0.4,1-1V7c0-2.8,2.2-5,5-5s5,2.2,5,5v3c0,0.6,0.4,1,1,1h2    c1.1,0,2,0.9,2,2v6H18V13z M39,21c0.6,0,1-0.4,1-1v-1h2v7H28c-1.7,0-3,1.3-3,3v16c0,1.7,1.3,3,3,3h14v6H14V19h2v1c0,0.6,0.4,1,1,1    H39z M46,57c0,0.6-0.4,1-1,1H11c-0.6,0-1-0.4-1-1V16c0-0.6,0.4-1,1-1h5v2h-3c-0.6,0-1,0.4-1,1v37c0,0.6,0.4,1,1,1h30    c0.6,0,1-0.4,1-1v-7h2V57z M51,45c0,0.6-0.4,1-1,1H28c-0.6,0-1-0.4-1-1V29c0-0.6,0.4-1,1-1h15c0,0,0,0,0,0s0,0,0,0h7    c0.6,0,1,0.4,1,1V45z"></path><path d="M47,36H33.8l3.9-3.2c0.4-0.4,0.5-1,0.1-1.4c-0.4-0.4-1-0.5-1.4-0.1l-6,5C30.1,36.4,30,36.7,30,37s0.1,0.6,0.4,0.8l6,5    c0.2,0.2,0.4,0.2,0.6,0.2c0.3,0,0.6-0.1,0.8-0.4c0.4-0.4,0.3-1.1-0.1-1.4L33.8,38H47c0.6,0,1-0.4,1-1S47.6,36,47,36z"></path><path d="M28,4c-1.7,0-3,1.3-3,3s1.3,3,3,3s3-1.3,3-3S29.7,4,28,4z M28,8c-0.6,0-1-0.4-1-1s0.4-1,1-1s1,0.4,1,1S28.6,8,28,8z"></path></g></g><g><rect x="2" y="61" style="" width="58" height="57" fill="none"></rect><text transform="matrix(1 0 0 1 22.2656 67.3901)" style="" font-family="&apos;MyriadPro-Regular&apos;" font-size="9px">Back</text></g></svg>