<svg xmlns="http://www.w3.org/2000/svg" xmlns:xlink="http://www.w3.org/1999/xlink" version="1.1" x="0px" y="0px" viewBox="0 0 100 100" enable-background="new 0 0 100 100" xml:space="preserve"><path fill="#000000" d="M91.048,44.451c-0.304,0-0.592,0.054-0.864,0.157l-0.032-0.109c-3.464,1.04-6.925,1.771-10.356,2.243  c-0.505,0.07-1.013,0.132-1.521,0.192c-0.586,0.068-1.172,0.13-1.756,0.183c-0.108,0.01-0.216,0.021-0.323,0.03  c-21.835,1.881-42.101-6.365-53.978-13.256c-0.105-0.062-0.211-0.123-0.316-0.186c-3.201-1.873-5.774-3.641-7.578-5.063  c-4.098-3.234-6.844-4.249-8.637-3.187c-1.912,1.13-1.505,3.94-1.451,4.258L4.3,29.951c7.327,18.211,24.606,30.556,49.971,35.699  c10.558,2.141,20.521,2.621,27.332,2.621c4.109,0,7.069-0.176,8.319-0.265c0.349,0.178,0.724,0.273,1.126,0.273  c3.237,0,4.711-6.176,4.711-11.914S94.285,44.451,91.048,44.451z M80.21,51.224c0,2.489-2.026,4.515-4.516,4.515  s-4.515-2.025-4.515-4.515c0-0.514,0.087-1.01,0.253-1.484c2.698-0.07,5.444-0.283,8.227-0.663  C80.02,49.734,80.21,50.465,80.21,51.224z M27.168,39.125c-0.482,1.506-1.889,2.567-3.531,2.567c-2.045,0-3.709-1.664-3.709-3.709  c0-0.857,0.294-1.675,0.823-2.328C22.803,36.863,24.955,38.026,27.168,39.125z M27.543,50.933c0-1.729,1.406-3.135,3.135-3.135  s3.135,1.405,3.135,3.135c0,1.729-1.406,3.134-3.135,3.134S27.543,52.661,27.543,50.933z M61.105,64.034  c-2.66-0.364-5.605-0.841-7.605-1.421c0-0.033,0-0.066,0-0.1c0-2.215,1.675-4.018,3.891-4.018c2.215,0,4.018,1.803,4.018,4.018  C61.408,63.037,61.305,63.552,61.105,64.034z M63.089,64.826c0.293-0.734,0.448-1.518,0.448-2.313c0-3.46-2.815-6.274-6.274-6.274  c-3.461,0-6.276,2.814-6.276,6.274c0,0.032,0.005,0.064,0.006,0.098c-5.977-1.436-12.386-3.532-18.526-6.599  c2.095-0.739,3.604-2.734,3.604-5.08c0-2.974-2.419-5.393-5.392-5.393c-2.974,0-5.392,2.419-5.392,5.393  c0,0.336,0.034,0.662,0.094,0.981C17.45,46.63,10.539,39.33,6.445,29.232c-0.072-0.59-0.008-1.6,0.389-1.834  c0.133-0.077,1.432-0.661,6.09,3.017c0.086,0.068,2.205,1.711,5.931,4.012c-0.76,1.019-1.184,2.256-1.184,3.557  c0,3.29,2.677,5.966,5.966,5.966c2.549,0,4.738-1.591,5.588-3.879c10.089,4.813,24.105,9.63,39.861,9.695  c-0.105,0.479-0.163,0.968-0.163,1.458c0,3.733,3.038,6.771,6.771,6.771s6.773-3.038,6.773-6.771c0-0.87-0.169-1.714-0.486-2.504  c1.237-0.209,2.482-0.452,3.732-0.731l-0.009,0.005c0,0,1.527-0.205,1.425,1.443c-0.535,2.066-0.793,4.535-0.793,6.93  c0,2.692,0.325,5.482,1.004,7.685c0.012,0.045,0.019,0.082,0.032,0.131c0.354,1.293-0.364,1.651-0.896,1.746  C81.717,66.103,73.058,66.135,63.089,64.826z M91.048,66.023c-0.712,0-2.453-3.385-2.453-9.657c0-6.273,1.741-9.658,2.453-9.658  s2.454,3.385,2.454,9.658C93.502,62.639,91.76,66.023,91.048,66.023z"></path><path fill="#000000" d="M44.137,48.715c-2.097,0-3.803,1.707-3.803,3.805s1.706,3.805,3.803,3.805c2.099,0,3.806-1.707,3.806-3.805  S46.235,48.715,44.137,48.715z M44.137,54.066c-0.852,0-1.546-0.693-1.546-1.547c0-0.854,0.694-1.548,1.546-1.548  c0.854,0,1.549,0.693,1.549,1.548C45.686,53.373,44.99,54.066,44.137,54.066z"></path></svg>